#!OML:ASF H:\LiuWeirdWalks\Patient Classification 1\Patient 1\Session 1\male.ASF
:FULLY-SPECIFIED
:DEGREES
1741
root -0.263368 17.9379 -9.30752 171.494 0.730087 172.75
lowerback 12.4952 -4.14362 -13.2612
upperback 0.0296158 -7.06982 4.03287
thorax -4.83555 -3.10533 13.0178
lowerneck -13.955 3.8154 8.52948
upperneck 13.0829 4.31365 -5.34607
head 6.57924 2.09141 -2.68278
rclavicle -7.90169e-015 4.6118e-014
rhumerus -48.9472 -21.9877 -54.4711
rradius 23.5804
rwrist -1.32773
rhand -19.2237 -7.83306
rfingers 7.12502
rthumb 7.08923 -37.6943
lclavicle -7.90169e-015 4.6118e-014
lhumerus -20.8338 -1.63277 74.4494
lradius 38.6061
lwrist 15.4436
lhand -18.9014 -0.12569
lfingers 7.12502
lthumb 7.40035 29.7249
rfemur -61.0905 -13.4529 11.6298
rtibia 28.6296
rfoot -0.390313 -15.7252
rtoes -10.3021
lfemur 19.8684 1.49368 -31.6975
ltibia -2.22639e-014
lfoot -2.01138 8.72744
ltoes -10.7759
1742
root -0.260681 17.9323 -9.38827 171.364 0.699969 172.721
lowerback 12.7438 -4.14676 -13.251
upperback 0.156877 -7.08698 4.02335
thorax -4.83037 -3.11691 13.0234
lowerneck -13.9363 3.84529 8.55962
upperneck 12.744 4.3404 -5.4078
head 6.47165 2.09538 -2.70469
rclavicle 6.75247e-014 -5.08889e-014
rhumerus -49.1409 -22.6222 -53.9109
rradius 22.9199
rwrist -0.536788
rhand -19.081 -7.81655
rfingers 7.12502
rthumb 7.22692 -37.6731
lclavicle 6.75247e-014 -5.08889e-014
lhumerus -21.0138 -2.03081 74.6937
lradius 39.7425
lwrist 15.9035
lhand -18.8918 -0.35775
lfingers 7.12502
lthumb 7.40955 29.4925
rfemur -61.8181 -13.6512 11.9509
rtibia 29.7897
rfoot 1.02141 -15.3355
rtoes -9.60755
lfemur 20.3113 1.5664 -31.6903
ltibia 4.45278e-014
lfoot -2.11434 8.6431
ltoes -11.0922
1743
root -0.257363 17.9282 -9.47016 171.265 0.654023 172.745
lowerback 12.9477 -4.17087 -13.1955
upperback 0.295537 -7.11566 4.0379
thorax -4.78592 -3.13897 13.0243
lowerneck -13.9201 3.87999 8.58111
upperneck 12.3438 4.37678 -5.49696
head 6.34629 2.10093 -2.73301
rclavicle 7.8728e-014 -3.33958e-014
rhumerus -49.2575 -23.1854 -53.4498
rradius 22.3046
rwrist 0.225504
rhand -19.0159 -7.8191
rfingers 7.12502
rthumb 7.28979 -37.6735
lclavicle 7.8728e-014 -3.33958e-014
lhumerus -21.2188 -2.40836 74.9645
lradius 40.8724
lwrist 16.2734
lhand -18.9329 -0.632873
lfingers 7.12502
lthumb 7.36989 29.2188
rfemur -62.478 -13.7392 12.1727
rtibia 31.0216
rfoot 3.015 -15.3272
rtoes -7.87446
lfemur 20.7308 1.61083 -31.6381
ltibia 8.90555e-014
lfoot -2.16682 8.58519
ltoes -11.4115
1744
root -0.253762 17.9259 -9.55393 171.202 0.575211 172.81
lowerback 13.1061 -4.22242 -13.1095
upperback 0.429976 -7.1682 4.07851
thorax -4.7132 -3.17571 13.0338
lowerneck -13.881 3.91729 8.61379
upperneck 11.9211 4.42355 -5.63409
head 6.21242 2.10921 -2.77784
rclavicle 6.17475e-014 -2.06736e-014
rhumerus -49.3077 -23.7266 -53.0179
rradius 21.6967
rwrist 1.03613
rhand -18.9889 -7.81374
rfingers 7.12502
rthumb 7.31585 -37.6673
lclavicle 6.17475e-014 -2.06736e-014
lhumerus -21.4759 -2.74771 75.2775
lradius 41.9744
lwrist 16.4931
lhand -19.0476 -0.948129
lfingers 7.12502
lthumb 7.25916 28.9074
rfemur -63.0654 -13.7729 12.3155
rtibia 32.2969
rfoot 5.40406 -15.5892
rtoes -5.35361
lfemur 21.1221 1.61156 -31.5565
ltibia -4.6118e-014
lfoot -2.17814 8.5518
ltoes -11.7211
1745
root -0.249723 17.9247 -9.64004 171.174 0.449531 172.883
lowerback 13.219 -4.29384 -13.0226
upperback 0.560911 -7.24053 4.13062
thorax -4.61147 -3.22482 13.052
lowerneck -13.8566 3.95729 8.63725
upperneck 11.4838 4.47562 -5.78177
head 6.07731 2.11927 -2.82384
rclavicle -8.69683e-016 -9.22361e-014
rhumerus -49.3098 -24.2923 -52.5936
rradius 21.1098
rwrist 1.86947
rhand -18.9816 -7.82179
rfingers 7.12502
rthumb 7.32288 -37.6751
lclavicle -8.69683e-016 -9.22361e-014
lhumerus -21.757 -3.06526 75.6342
lradius 43.0388
lwrist 16.6681
lhand -19.1845 -1.24253
lfingers 7.12502
lthumb 7.12706 28.6175
rfemur -63.5762 -13.7749 12.3505
rtibia 33.5948
rfoot 7.77354 -15.9625
rtoes -3.1971
lfemur 21.4844 1.56082 -31.4834
ltibia 6.36111e-015
lfoot -2.14941 8.53477
ltoes -12.0366
1746
root -0.245149 17.9249 -9.72807 171.186 0.2755 172.964
lowerback 13.2876 -4.37978 -12.9337
upperback 0.673815 -7.3275 4.19516
thorax -4.49902 -3.28163 13.0804
lowerneck -13.8426 3.98736 8.64884
upperneck 11.104 4.51904 -5.93119
head 5.96174 2.12593 -2.86926
rclavicle -4.14218e-014 4.92986e-014
rhumerus -49.2928 -24.8483 -52.1769
rradius 20.5553
rwrist 2.70006
rhand -18.9944 -7.8556
rfingers 7.12502
rthumb 7.31054 -37.7093
lclavicle -4.14218e-014 4.92986e-014
lhumerus -22.0754 -3.38557 76.0527
lradius 44.0461
lwrist 16.7851
lhand -19.4062 -1.57829
lfingers 7.12502
lthumb 6.91303 28.2888
rfemur -64.0129 -13.7676 12.2997
rtibia 34.904
rfoot 9.99109 -16.3691
rtoes -1.45153
lfemur 21.8116 1.45587 -31.4164
ltibia -3.49861e-014
lfoot -2.08416 8.52189
ltoes -12.3702
1747
root -0.240014 17.9261 -9.81906 171.218 0.0507718 173.044
lowerback 13.3205 -4.47946 -12.8479
upperback 0.773981 -7.43044 4.26082
thorax -4.37547 -3.34708 13.1095
lowerneck -13.7986 4.00969 8.66789
upperneck 10.7066 4.55348 -6.08649
head 5.83562 2.12935 -2.91899
rclavicle -6.2319e-014 3.18055e-015
rhumerus -49.2796 -25.394 -51.7749
rradius 20.0614
rwrist 3.51485
rhand -18.9807 -7.87057
rfingers 7.12502
rthumb 7.32382 -37.7238
lclavicle -6.2319e-014 3.18055e-015
lhumerus -22.4306 -3.70046 76.5205
lradius 44.9907
lwrist 16.8736
lhand -19.6562 -1.95627
lfingers 7.12502
lthumb 6.67169 27.9186
rfemur -64.3622 -13.7884 12.1924
rtibia 36.2081
rfoot 12.0077 -16.6564
rtoes -0.248589
lfemur 22.1298 1.29904 -31.3616
ltibia 2.8625e-014
lfoot -1.99876 8.50797
ltoes -12.7262
